<svg xmlns="http://www.w3.org/2000/svg" width="613" height="325" viewBox="0" version="1.1"><title>Slice 1</title><description>Created with Sketch (http://www.bohemiancoding.com/sketch)</description><g stroke="none" stroke-width="1" fill="none" fill-rule="evenodd"><g fill="#444444"><path d="M176.7 0.7C173.6 0.9 170.5 1.3 167.3 1.9 164.2 2.4 161.1 3.3 158 4.2 152.1 6.1 146.4 8.7 141.3 12.2 138.7 13.8 136.3 15.7 134 17.6 131.5 19.6 129.3 21.8 127.2 24.1 125.2 26.2 123.3 28.4 121.7 30.8 121 32 120.5 33.2 119.9 34.5 119.2 36.1 118.6 37.7 118.3 39.4 118 40.9 117.9 42.3 118.1 43.7 118.3 45.1 118.6 46.4 119 47.7 120 50.6 121.6 53.3 123.5 55.7 125.1 57.7 127.1 59.3 129.2 60.8 131.6 62.4 134.2 63.6 136.9 64.7 142.2 66.8 147.7 68.4 153.3 69.3 159.5 70.4 165.7 70.8 171.9 71.1 176.7 71.4 181.4 71.4 186.1 71.2 188.2 76.7 190 82.3 191.5 88 192.5 91.8 193.4 95.7 194.3 99.6 195.2 103.1 196 106.7 196.8 110.2 198.1 115.6 199.1 121.1 199.8 126.6 201 135.9 201.6 145.4 201.7 154.8 201.7 159.5 201.6 164.1 201.4 168.8 201.2 173.5 200.9 178.2 200.3 182.9 199.7 187.9 198.8 192.9 197.6 197.7 196.3 202.9 194.6 207.9 192.6 212.8 190.7 217.1 188.6 221.3 186.1 225.3 183.6 229.5 180.7 233.6 177.7 237.5 173.3 243.1 168.5 248.5 163.5 253.7 162.1 253.1 160.7 252.6 159.4 252 155.1 250 150.8 248 146.6 245.9 143.5 244.5 140.4 243 137.4 241.5 132.5 238.9 127.5 236.4 122.6 233.9 118.8 231.9 115 230.1 111.3 228.3 109.3 227.3 107.3 226.3 105.3 225.3 103.4 224.4 101.5 223.6 99.7 222.7 96.6 221.4 93.5 220.1 90.4 218.8 84.7 216.5 78.8 214.4 72.8 213 66.4 211.4 59.9 210.5 53.4 210.6 50.3 210.7 47.3 210.9 44.3 211.3 40.9 211.7 37.6 212.3 34.4 213.2 31.5 214.1 28.7 215.3 25.9 216.6 23.1 218 20.4 219.6 17.9 221.4 12.9 224.9 8.7 229.4 5.5 234.7 4 237.2 2.8 240 1.8 242.8 0.7 245.9 0.3 249.2 0.1 252.4 -0.3 258.8 0.7 265 2.2 271.2 2.9 273.9 3.7 276.6 4.7 279.3 5.8 282.3 7.3 285.1 9 287.8 12.3 293 16.9 297.1 21.9 300.6 24.3 302.2 26.9 303.6 29.6 304.8 32.5 306.2 35.6 307.3 38.8 308.1 41.7 308.9 44.7 309.3 47.6 309.7 50.9 310.1 54.2 310.4 57.4 310.4 60.5 310.5 63.7 310.3 66.8 310.1 70.1 310 73.4 309.7 76.8 309.3 83.2 308.6 89.6 307.4 95.8 305.7 102 304.1 108 301.8 113.8 299.3 119.6 296.9 125.1 294 130.5 290.8 136 287.6 141.2 284 146.2 280.1 151.1 276.3 155.8 272.2 160.4 267.9 162.1 266.4 163.8 264.7 165.5 263.1 167.6 263.9 169.7 264.8 171.8 265.7 173.4 266.3 175 267 176.6 267.6 178 268.2 179.6 268.7 181.1 269.3 185.9 271 190.6 272.7 195.3 274.4 196.9 274.9 198.5 275.4 200.1 275.9 203.1 276.9 206.1 277.8 209.2 278.8 217.2 281.3 225.2 283.9 233.4 285.6 239.9 286.9 246.5 287.8 253.1 288.5 259.6 289.2 266 289.4 272.5 289.4 278.9 289.3 285.2 288.5 291.5 287.1 297.7 285.6 303.7 283.4 309.5 280.7 321 275.4 331.4 267.9 340.8 259.5 350.1 251.2 357.8 241.1 364.5 230.5 371.1 219.9 375.9 208 378.9 195.8 380.4 189.6 381.3 183.2 381.8 176.8 382.4 170.5 382.7 164.1 382.5 157.7 382.4 151.3 381.7 144.8 380.6 138.4 379.5 132.2 377.4 126.3 375 120.6 372.6 114.6 369.8 108.8 366.7 103.2 363.7 97.7 360.5 92.2 357 87 350.1 76.4 342.3 66.5 333.4 57.6 329 53.2 324.3 49 319.4 45.1 318.8 44.6 318.2 44.1 317.6 43.6 318.5 43.4 319.4 43.1 320.2 42.9 320.9 42.7 321.6 42.5 322.3 42.2 324.8 41.5 327.2 40.7 329.6 39.9 334.9 38.2 340.3 36.5 345.7 34.8 346.6 34.5 347.6 34.3 348.6 33.9 350.2 33.3 351.8 32.7 353.4 32.1 358 30.4 362.6 28.7 367.2 27 369.4 26.2 371.6 25.3 373.8 24.4 376.7 23.2 379.6 22 382.5 20.5 385 19.3 387.5 18 389.9 16.5 392.4 15 394.7 13.1 397 11.4 397.9 10.7 398.6 10.1 398.9 9 399.1 7.9 399 6.8 398.5 5.9 397.9 5 397.1 4.3 396.1 4.1 395.1 3.8 393.8 3.9 393 4.5 391.4 5.6 389.8 6.9 388.2 8 386.8 9.1 385.2 10 383.6 10.9 380 12.9 376.3 14.7 372.6 16.3 366.8 18.7 361 20.8 355.2 23 351.9 24.2 348.6 25.5 345.2 26.6 339.9 28.3 334.6 30 329.2 31.7 326.6 32.5 324 33.3 321.3 34.2 320.3 34.5 319.4 34.8 318.4 35.1 315.5 35.9 312.6 36.7 309.6 37.5 307.9 36.2 306.1 34.9 304.4 33.7 299.4 30 294.3 26.5 288.9 23.5 283.5 20.3 277.7 17.6 271.9 15.2 266.1 12.7 260.2 10.7 254.1 9 247.9 7.2 241.7 5.7 235.4 4.5 228.9 3.1 222.4 2.2 215.8 1.5 209.3 0.9 202.7 0.6 196.2 0.3 194.1 0.2 192.1 0.2 190 0.2 185.6 0.2 181.2 0.4 176.7 0.7M196.2 8.3C204.6 8.6 213 9.1 221.3 10.2 229.7 11.3 237.9 13 246.1 15.1 254 17.1 261.7 19.6 269.3 22.7 276.4 25.7 283.4 29.3 290 33.4 293.3 35.5 296.5 37.8 299.8 40.1 299.8 40.1 299.8 40.1 299.8 40.2 296.1 41.2 292.4 42.2 288.7 43.2 281.5 45.1 274.3 46.9 267.1 48.8 260.2 50.5 253.3 52.3 246.4 54 242.6 55 238.7 55.8 234.9 56.6 226.6 58.5 218.2 60.1 209.8 61.3 203.7 62.1 197.6 62.7 191.4 63 188.8 56.9 185.8 50.9 182.8 45 181.6 42.8 180.4 40.5 179.2 38.2 178.1 36.1 177 34.1 175.9 32 174.4 29.3 173 26.5 171.8 23.7 170.7 21.1 169.7 18.5 168.9 15.8 168.4 13.9 167.9 11.9 167.5 10 169 9.7 170.5 9.4 172 9.2 180 8.2 188.1 8 196.2 8.3M159.8 12.1C160.3 14.3 160.8 16.4 161.4 18.6 162.5 22.2 164 25.8 165.6 29.3 167.7 34.1 170.4 38.7 172.9 43.3 176.3 50 179.8 56.5 182.9 63.3 178.8 63.4 174.6 63.3 170.5 63 166.3 62.8 162.1 62.5 158 62 154.5 61.5 151 60.8 147.6 59.9 144.6 59 141.6 58 138.8 56.8 136.5 55.8 134.3 54.6 132.2 53.2 131.2 52.3 130.3 51.4 129.4 50.4 128.5 49.1 127.7 47.7 127 46.3 126.6 45.2 126.3 44.1 126 43 126 42.5 126 42.1 126 41.6 126.3 40.3 126.7 39 127.1 37.8 127.4 37.2 127.7 36.6 128 36 128.4 35.1 129 34.3 129.6 33.5 131.2 31.5 133 29.5 134.8 27.7 136.8 25.6 139.1 23.7 141.4 21.9 143.4 20.3 145.6 18.9 147.8 17.5 150.1 16.1 152.5 14.9 155 13.9 156.6 13.2 158.2 12.6 159.8 12.1M141.9 21.5C141.8 21.5 141.7 21.6 141.6 21.7 141.7 21.6 141.8 21.5 141.9 21.5M210.8 69.2C217.3 68.3 223.7 67.1 230.2 65.8 236.9 64.4 243.7 63 250.4 61.3 261.4 58.5 272.4 55.7 283.4 52.9 291.3 50.9 299 48.7 306.9 46.5 307.2 46.4 307.6 46.3 308 46.2 308.5 46.5 308.9 46.9 309.3 47.2 315.2 51.7 320.8 56.6 326.1 61.7 331.6 67.1 336.8 72.8 341.5 78.9 346.5 85.4 351.1 92.3 355.3 99.3 357.5 103 359.6 106.8 361.7 110.6 363.7 114.5 365.5 118.4 367.2 122.5 368.7 126 370 129.5 371.1 133.2 372.2 137 373 140.9 373.5 144.8 374.3 151.1 374.7 157.5 374.5 163.9 374.4 170.3 374 176.8 373.1 183.2 371.7 193 369.1 202.5 365.3 211.7 363.2 216.6 360.7 221.3 358 225.8 355 230.6 351.8 235.1 348.4 239.5 345.5 243.3 342.4 246.9 338.9 250.3 335.3 253.8 331.4 257.1 327.4 260.3 319.7 266.2 311.4 271.3 302.5 275.1 295.8 277.8 288.8 279.8 281.7 280.8 276.1 281.5 270.5 281.4 264.9 281.3 258.9 281.2 252.8 280.5 246.8 279.7 240.5 278.9 234.2 277.8 228.1 276.1 223.7 275 219.4 273.6 215.1 272.3 209.8 270.6 204.5 268.9 199.3 267.2 195.7 266.1 192.2 264.8 188.7 263.5 185.9 262.5 183.2 261.5 180.4 260.5 179.5 260.2 178.6 259.9 177.7 259.5 175.6 258.6 173.5 257.8 171.4 256.9 172.2 256.2 172.9 255.4 173.6 254.6 181.9 245.5 189.7 235.7 195.6 224.9 198.6 219.4 201 213.6 203 207.7 205 201.8 206.4 195.7 207.4 189.6 209.5 176.8 209.9 163.8 209.6 150.9 209.5 144.5 209.1 138.1 208.4 131.7 207.8 125.2 206.7 118.8 205.4 112.4 204.4 106.9 203 101.6 201.7 96.1 201.1 93.2 200.3 90.3 199.6 87.4 198.1 81.8 196.5 76.2 194.5 70.8 199.9 70.4 205.4 69.9 210.8 69.2M367.3 122.6C367.3 122.7 367.4 122.8 367.4 122.9 367.4 122.8 367.3 122.7 367.3 122.6M365.2 212C365.1 212.1 365.1 212.2 365 212.3 365.1 212.2 365.1 212.1 365.2 212M62.7 219.1C67.8 219.9 72.9 221.1 77.8 222.7 82.6 224.3 87.4 226.1 92 228.1 95.4 229.5 98.8 231 102.2 232.6 104.7 233.9 107.2 235.1 109.7 236.4 113.1 238.1 116.5 239.7 119.8 241.4 124.8 244 129.9 246.6 134.9 249.2 138.2 250.9 141.6 252.4 145 254 147.7 255.3 150.4 256.6 153.1 257.9 154.3 258.4 155.5 259 156.8 259.5 157 259.6 157.2 259.7 157.4 259.8 152 265 146.4 269.9 140.5 274.5 130.7 282 120 288 108.8 292.8 104.1 294.8 99.3 296.5 94.5 297.8 89.3 299.3 84 300.3 78.7 301.1 73.7 301.7 68.7 302.1 63.7 302.3 61.1 302.4 58.5 302.4 55.9 302.4 53.2 302.3 50.6 302.1 48 301.7 45.8 301.4 43.7 301 41.6 300.6 39.1 300 36.7 299.2 34.4 298.2 30.5 296.6 26.9 294.5 23.6 292 21.3 290.1 19.2 288 17.3 285.7 15.4 283.1 13.8 280.3 12.5 277.4 11.5 274.9 10.8 272.3 10.1 269.7 9.4 267 8.8 264.2 8.4 261.4 7.9 257.6 7.9 253.8 8.3 250 8.6 247.7 9.3 245.4 10.1 243.2 11.4 240.5 12.8 237.9 14.6 235.5 16.6 233 18.8 230.8 21.2 228.9 24.6 226.3 28.4 224.2 32.3 222.5 34.1 221.7 36 221.1 37.9 220.5 40 220 42.1 219.6 44.3 219.3 50.4 218.5 56.6 218.4 62.7 219.1"/><path d="M415.3 12.7C412 12.8 408.6 13.1 405.3 13.6 402.5 14 399.7 14.6 397 15.5 394 16.4 391.1 17.8 388.3 19.4 385.8 20.9 383.5 22.7 381.4 24.7 379.2 26.9 377.3 29.4 375.5 32 368.4 42 364.1 53.9 362.6 66 361.9 72 361.8 78.1 362.5 84.1 362.9 87 363.4 89.9 364.3 92.7 365.3 95.7 366.7 98.6 368.2 101.4 369.6 103.9 371.2 106.3 372.9 108.7 374.8 111.3 376.7 113.8 378.7 116.3 382.5 120.9 386.7 125.2 391 129.3 395.4 133.5 399.8 137.7 404.4 141.8 409 146 413.8 150 418.6 154.2 418.8 154.3 419 154.5 419.2 154.7 418.5 155.6 417.8 156.5 417.1 157.4 409.4 167.3 401 176.6 392.5 185.8 390 188.4 387.4 190.9 384.8 193.5L384.4 193.9C375.9 192 367.1 190.9 358.4 190.5 345.7 189.9 332.9 190.9 320.6 193.6 314.7 194.9 308.9 196.6 303.3 198.7 297.7 200.8 292.3 203.3 287.2 206.4 284.9 207.9 282.6 209.6 280.4 211.3 278.1 213.1 275.8 215 273.7 217.1 269.7 221 266.4 225.6 264.1 230.7 262.9 233.3 262 236 261.2 238.7 260.4 241.7 259.9 244.7 259.6 247.7 258.9 253.5 259.5 259.5 260.9 265.2 262.3 270.8 264.8 276.2 268.1 280.9 269.3 282.5 270.5 284.1 271.8 285.6 269.7 286.8 267.6 287.9 265.5 289.1 264.6 289.7 263.7 290.3 262.7 290.7 257.9 293 253.1 295.3 248.3 297.6 247 298.3 245.6 298.9 244.2 299.6 238.1 302.1 232.1 304.6 225.9 307.1 224.9 307.5 224.1 307.9 223.5 308.9 223 309.8 222.9 311 223.1 312 223.4 313 224.1 313.8 225 314.4 225.8 314.9 227.1 315.2 228.1 314.8 233.7 312.5 239.2 310.2 244.8 307.9 246.2 307.4 247.5 306.8 248.8 306.2 251.1 305.1 253.4 304 255.7 302.9 258.5 301.6 261.3 300.2 264.1 298.9 265.1 298.4 266.2 298 267.1 297.4 270.6 295.4 274.1 293.5 277.5 291.5 278.4 292.2 279.2 293 280.1 293.7 284.7 297.4 289.8 300.5 295 303.2 300.5 306.1 306.1 308.6 311.8 310.7 317.6 312.9 323.6 314.7 329.5 316.4 335.7 318.2 342.1 319.7 348.5 321 361.2 323.5 374.2 324.8 387.1 325 400 325.2 413 324.2 425.7 321.9 431.8 320.8 437.8 319.3 443.8 317.5 449.7 315.7 455.6 313.4 461.2 310.8 471.9 305.8 482 299.3 490.2 290.7 494.2 286.5 497.9 281.7 500.7 276.6 502 274.1 503.1 271.5 503.9 268.9 504.9 266 505.4 262.9 505.7 259.8 505.8 259.4 505.8 259.1 505.9 258.7 507.7 259.5 509.5 260.4 511.3 261.2 521.6 266.1 532 270.5 542.7 274.5 553.2 278.4 563.8 281.9 574.7 284.7 585.7 287.4 596.9 289.3 607.9 291.8 609 292 610.1 291.9 611 291.4 611.9 290.8 612.6 290 612.9 289 613.4 287 612.2 284.5 610.1 284.1 596.2 281 582.3 278.7 568.6 274.7 555.5 270.9 542.6 266.2 530 260.9 521.9 257.5 513.9 253.7 505.9 249.8 505.7 247.3 505.4 244.8 504.8 242.3 504.2 239.4 503.2 236.6 502.1 233.9 500.8 230.9 499.4 227.9 497.9 225 495 219.6 491.4 214.7 487.5 210 483.7 205.3 479.6 200.7 475.5 196.2 471.2 191.6 466.7 187.2 462.1 182.8 460.2 180.9 458.2 179 456.2 177.2 448.2 169.9 440.1 162.6 432 155.4 431.4 154.8 430.7 154.1 430 153.5 432.2 150.5 434.3 147.4 436.4 144.3 443.4 133.8 449.6 122.9 454.8 111.4 460.1 99.8 464.1 87.7 467 75.2 468.4 69 469.3 62.7 469.8 56.4 470 53.5 470.2 50.6 470 47.7 469.8 44.6 469.1 41.6 468.2 38.6 467.3 36 466.1 33.4 464.6 31.1 463 28.6 460.9 26.4 458.6 24.6 456.5 22.8 454.2 21.3 451.7 19.9 449 18.3 446 17.2 443 16.2 437 14.3 430.8 13.4 424.6 13 422.1 12.8 419.7 12.7 417.2 12.7 416.6 12.7 415.9 12.7 415.3 12.7M418.4 20.7C422.3 20.7 426.3 21 430.2 21.5 435.2 22.2 440.1 23.4 444.8 25.3 447.7 26.6 450.4 28.3 452.9 30.2 454.4 31.4 455.8 32.6 457 34.1 458.1 35.6 459 37.2 459.8 38.9 460.7 41.3 461.4 43.8 461.8 46.3 462.1 48.9 462.1 51.6 462 54.2 461.8 57.1 461.6 59.9 461.2 62.7 460.2 69.5 458.7 76.1 456.8 82.7 454.9 89.7 452.5 96.7 449.7 103.5 445.5 113.1 440.6 122.5 435.1 131.4 431.6 137.2 427.9 142.8 424 148.3 419.7 144.6 415.4 140.9 411.1 137.1 406.2 132.8 401.4 128.2 396.7 123.6 391.9 119.1 387.3 114.4 383.2 109.2 379.3 104.1 375.5 98.7 372.8 92.8 371.7 90 371 87.1 370.5 84.1 369.8 78.2 369.9 72.2 370.6 66.3 371.5 60.2 373 54.3 375.4 48.6 377.6 43.5 380.4 38.6 383.7 34.2 385.4 32 387.3 30.1 389.4 28.4 391.8 26.6 394.4 25.1 397.1 23.9 400.4 22.6 403.8 21.9 407.3 21.4 411 20.9 414.7 20.7 418.4 20.7M445.2 25.5C445.3 25.6 445.4 25.6 445.5 25.6 445.4 25.6 445.3 25.6 445.2 25.5M450.1 102.5C450 102.7 449.9 102.9 449.8 103.1 449.9 102.9 450 102.7 450.1 102.5M396.4 193.3C397.9 191.8 399.3 190.2 400.8 188.6 405.1 184 409.4 179.2 413.5 174.4 417.6 169.7 421.5 164.9 425.2 160 431.6 165.6 437.9 171.4 444.2 177.1 447.2 179.8 450.3 182.5 453.2 185.3 457.8 189.7 462.3 194 466.7 198.6 471 203 475.1 207.7 479.1 212.4 480.8 214.4 482.5 216.5 484.2 218.6 486.1 221.2 487.9 223.8 489.6 226.5 491.4 229.5 492.9 232.7 494.3 235.9 495.6 239 496.6 242.2 497.3 245.5 496.6 245.2 495.9 244.8 495.2 244.5 494.3 244 493.5 243.6 492.7 243.1 490.7 242 488.6 240.9 486.6 239.8 477 234.6 467.4 229.5 457.9 224.3 454.8 222.7 451.6 221.1 448.5 219.4 442.9 216.5 437.3 213.6 431.6 210.9 425.9 208.1 420 205.7 414 203.3 408.1 201 402.2 198.8 396.1 197 395.2 196.7 394.4 196.4 393.5 196.2 394.4 195.2 395.4 194.2 396.4 193.3M371.3 199.6C373.4 199.9 375.6 200.3 377.7 200.7 375.5 202.8 373.4 204.9 371.3 207 369.6 208.7 367.9 210.4 366.2 212.1 365.6 212.7 365 213.4 364.4 213.9 357.9 219.9 351.4 225.9 344.9 231.8 342.1 234.3 339.4 236.8 336.7 239.3 335.9 240.1 335 240.8 334.2 241.5 332.1 243.3 329.9 245.1 327.8 246.9 323.5 250.6 319.1 254.2 314.6 257.6 309.7 261.4 304.7 265 299.6 268.5 297.1 270.2 294.6 271.8 292.1 273.5 289.9 274.9 287.8 276.3 285.6 277.6 283.4 278.9 281.1 280.2 278.8 281.5 277.8 280.4 276.8 279.2 275.9 278 273.8 275.2 272 272.3 270.6 269.2 269.2 265.6 268.2 261.9 267.7 258 267.2 254.4 267.2 250.7 267.7 247 268.3 242.9 269.4 238.8 270.9 234.9 272.2 232.1 273.7 229.4 275.6 226.9 278.5 223.3 281.9 220.2 285.6 217.3 288 215.5 290.4 213.8 293 212.2 295.9 210.5 298.9 209.1 302 207.8 311.7 203.8 322 201.1 332.4 199.6 345.3 197.9 358.4 198 371.3 199.6M333 199.5C332.9 199.5 332.8 199.5 332.7 199.5 332.8 199.5 332.9 199.5 333 199.5M287.7 285.6C289.9 284.4 292.1 283 294.2 281.6 304.9 274.8 315.3 267.3 325.2 259.4 330.2 255.4 335 251.3 339.8 247.2 341.2 246 342.5 244.9 343.8 243.7 347.8 239.9 351.9 236.2 356 232.5 360.1 228.7 364.2 225 368.3 221.2 369.8 219.8 371.2 218.4 372.7 217 377.4 212.2 382.2 207.4 387 202.7 389.8 203.4 392.6 204.2 395.4 205.1 403.2 207.6 410.9 210.5 418.5 213.7 429.9 218.5 440.8 224.5 451.9 230.2 455 231.8 458.1 233.5 461.2 235.2 470.9 240.5 480.6 245.7 490.3 250.9 492.2 251.9 494.1 252.8 496 253.8 496.7 254.1 497.4 254.5 498.1 254.8 498 256.6 497.9 258.3 497.7 260 497.2 263.3 496.4 266.5 495.2 269.6 493.6 273.3 491.4 276.7 489 279.9 485.4 284.5 481.3 288.6 476.7 292.3 469.6 297.7 461.6 302 453.4 305.5 441.7 310.4 429.2 313.6 416.5 315.4 398.3 317.7 379.8 317.5 361.5 315.1 352.2 313.8 343 311.8 333.9 309.3 325.3 307 316.8 304.3 308.6 300.9 304.5 299.1 300.5 297.1 296.6 295 292.9 293 289.4 290.8 286.1 288.2 285.7 287.9 285.3 287.6 284.9 287.3 285.8 286.7 286.8 286.2 287.7 285.6M417.9 213.4C418.1 213.5 418.2 213.5 418.3 213.6 418.2 213.5 418.1 213.5 417.9 213.4M418.7 213.7C418.7 213.8 418.8 213.8 418.9 213.8 418.8 213.8 418.7 213.8 418.7 213.7M307.8 300.6C307.9 300.6 308 300.7 308.2 300.7 308 300.7 307.9 300.6 307.8 300.6"/></g></g></svg>